<svg width="193" height="44" viewBox="0 0 193 44" fill="none" xmlns="http://www.w3.org/2000/svg">
<path d="M88.5751 35.1L85.5651 28.134H70.5151L67.5481 35.1H61.7861L75.3311 5H80.8351L94.4231 35.1H88.5751ZM72.4071 23.748H83.7161L78.0401 10.59L72.4071 23.748Z" fill="#0D3C82"/>
<path d="M115.198 12.138H120.315V31.617C120.315 39.959 115.972 43.743 107.931 43.743C103.631 43.743 99.3742 42.625 96.7512 40.475L99.1592 36.433C101.18 38.11 104.448 39.185 107.63 39.185C112.704 39.185 114.94 36.863 114.94 32.219V31.015C113.048 33.079 110.339 34.068 107.243 34.068C100.664 34.068 95.6332 29.596 95.6332 22.931C95.6332 16.266 100.664 11.88 107.243 11.88C110.468 11.88 113.306 12.912 115.198 15.191V12.138ZM108.06 29.51C112.102 29.51 115.026 26.844 115.026 22.931C115.026 19.061 112.102 16.438 108.06 16.438C103.975 16.438 101.051 19.061 101.051 22.931C101.051 26.844 103.975 29.51 108.06 29.51Z" fill="#0D3C82"/>
<path d="M137.702 35.401C130.65 35.401 125.49 30.499 125.49 23.619C125.49 16.739 130.65 11.88 137.702 11.88C144.84 11.88 149.957 16.739 149.957 23.619C149.957 30.499 144.84 35.401 137.702 35.401ZM137.702 30.8C141.615 30.8 144.539 28.005 144.539 23.619C144.539 19.233 141.615 16.438 137.702 16.438C133.832 16.438 130.908 19.233 130.908 23.619C130.908 28.005 133.832 30.8 137.702 30.8Z" fill="#0D3C82"/>
<path d="M160.213 15.492C161.761 13.084 164.556 11.88 168.383 11.88V16.997C167.91 16.911 167.523 16.868 167.136 16.868C163.051 16.868 160.471 19.276 160.471 23.963V35.1H155.096V12.138H160.213V15.492Z" fill="#0D3C82"/>
<path d="M181.589 11.88C188.211 11.88 192.038 15.019 192.038 21.641V35.1H186.964V32.305C185.674 34.283 183.18 35.401 179.74 35.401C174.494 35.401 171.183 32.52 171.183 28.521C171.183 24.694 173.763 21.684 180.729 21.684H186.663V21.34C186.663 18.201 184.771 16.352 180.944 16.352C178.364 16.352 175.698 17.212 173.978 18.631L171.871 14.718C174.322 12.826 177.891 11.88 181.589 11.88ZM180.858 31.488C183.481 31.488 185.76 30.284 186.663 27.919V25.253H181.116C177.461 25.253 176.472 26.629 176.472 28.306C176.472 30.241 178.106 31.488 180.858 31.488Z" fill="#0D3C82"/>
<path d="M3.79297 10.5625C3.79297 6.82398 6.82364 3.7933 10.5622 3.7933H37.2305C40.969 3.7933 43.9997 6.82398 43.9997 10.5625V26.2309C43.9997 36.0445 36.0441 44 26.2305 44H10.5622C6.82365 44 3.79297 40.9693 3.79297 37.2308V10.5625Z" fill="#0D3C82"/>
<path d="M0 6.06894C0 2.71716 2.71716 0 6.06894 0H34.1378C37.4895 0 40.2067 2.71716 40.2067 6.06894V24.2757C40.2067 33.0742 33.0742 40.2067 24.2757 40.2067H6.06894C2.71716 40.2067 0 37.4895 0 34.1378V6.06894Z" fill="white"/>
<path fill-rule="evenodd" clip-rule="evenodd" d="M6.06894 3.79308H34.1378C35.3947 3.79308 36.4136 4.81202 36.4136 6.06894V24.2757C36.4136 24.7173 36.39 25.1534 36.3441 25.5828C34.327 26.2078 30.3422 27.2217 26.1583 26.4013C25.5636 26.2847 24.9491 26.4592 24.5045 26.871C24.06 27.2828 23.839 27.8823 23.9098 28.4841C24.1041 30.1345 24.4292 31.9919 24.967 33.6403C25.2514 34.512 25.6313 35.442 26.1578 36.2686C25.5444 36.3641 24.9159 36.4136 24.2757 36.4136H6.06894C4.81202 36.4136 3.79308 35.3947 3.79308 34.1378V6.06894C3.79308 4.81202 4.81202 3.79308 6.06894 3.79308ZM29.7233 35.1254C32.0102 33.975 33.8834 32.1227 35.0601 29.8514C33.1808 30.2729 30.7319 30.6256 28.0569 30.4586C28.1997 31.1635 28.3706 31.8433 28.573 32.4639C29.03 33.8647 29.5343 34.602 29.9071 34.8659L29.7233 35.1254ZM0 6.06894C0 2.71716 2.71716 0 6.06894 0H34.1378C37.4895 0 40.2067 2.71716 40.2067 6.06894V24.2757C40.2067 33.0742 33.0742 40.2067 24.2757 40.2067H6.06894C2.71716 40.2067 0 37.4895 0 34.1378V6.06894Z" fill="#0D3C82"/>
</svg>
